<?xml version="1.0" encoding="UTF-8" standalone="no"?>
<svg
   xmlns:dc="http://purl.org/dc/elements/1.1/"
   xmlns:cc="http://creativecommons.org/ns#"
   xmlns:rdf="http://www.w3.org/1999/02/22-rdf-syntax-ns#"
   xmlns:svg="http://www.w3.org/2000/svg"
   xmlns="http://www.w3.org/2000/svg"
   xmlns:sodipodi="http://sodipodi.sourceforge.net/DTD/sodipodi-0.dtd"
   xmlns:inkscape="http://www.inkscape.org/namespaces/inkscape"
   height="465"
   viewBox="0 0 1920 465"
   width="1920"
   id="svg2"
   version="1.1"
   inkscape:version="0.91 r13725"
   sodipodi:docname="hero_logo.svg"
   style="fill:none">
  <metadata
     id="metadata26">
    <rdf:RDF>
      <cc:Work
         rdf:about="">
        <dc:format>image/svg+xml</dc:format>
        <dc:type
           rdf:resource="http://purl.org/dc/dcmitype/StillImage" />
        <dc:title></dc:title>
      </cc:Work>
    </rdf:RDF>
  </metadata>
  <defs
     id="defs24" />
  <sodipodi:namedview
     pagecolor="#ffffff"
     bordercolor="#666666"
     borderopacity="1"
     objecttolerance="10"
     gridtolerance="10"
     guidetolerance="10"
     inkscape:pageopacity="0"
     inkscape:pageshadow="2"
     inkscape:window-width="1920"
     inkscape:window-height="1005"
     id="namedview22"
     showgrid="false"
     inkscape:zoom="0.525"
     inkscape:cx="849.86408"
     inkscape:cy="350.64107"
     inkscape:window-x="0"
     inkscape:window-y="24"
     inkscape:window-maximized="1"
     inkscape:current-layer="layer2" />
  <g
     inkscape:groupmode="layer"
     id="layer2"
     inkscape:label="Background"
     style="display:none"
     transform="translate(0,-165)">
    <path
       inkscape:connector-curvature="0"
       style="fill:#2980b9;fill-opacity:1"
       d="m 0,165 1920,0 0,465 -1920,0 z"
       id="path4" />
  </g>
  <g
     inkscape:groupmode="layer"
     id="layer1"
     inkscape:label="Logo"
     transform="translate(0,-165)"
     sodipodi:insensitive="true"
     style="display:inline">
    <path
       style="fill:#ffffff"
       id="path8"
       d="m 613.81786,263.19483 c 11.97156,0 22.39125,1.8856 31.25906,5.65314 8.86781,3.54724 17.62479,9.20045 26.27093,16.95983 l -15.96208,18.62249 c -6.42918,-5.54239 -12.85835,-9.64379 -19.28749,-12.3041 -6.20749,-2.6604 -13.08005,-3.99066 -20.61771,-3.99066 -17.29224,0 -31.03737,7.42688 -41.23536,22.28038 -10.19797,14.63193 -15.29698,38.35348 -15.29698,71.16438 0,31.92416 5.09901,55.5345 15.29698,70.8317 10.19799,15.07515 23.94312,22.61277 41.23536,22.61277 8.64613,0 16.07291,-1.55173 22.2804,-4.65555 6.2075,-3.10372 12.96917,-7.64845 20.28515,-13.63407 l 15.62951,18.28962 c -16.62714,17.07077 -36.57975,25.60587 -59.85777,25.60587 -17.07056,0 -32.2567,-4.43372 -45.55842,-13.30168 -13.08004,-8.86787 -23.38889,-22.16963 -30.92652,-39.9052 -7.31595,-17.95732 -10.97392,-39.90519 -10.97392,-65.84346 0,-25.71688 3.76883,-47.44301 11.30646,-65.17849 7.75934,-17.73564 18.17903,-31.03742 31.25906,-39.9052 13.30174,-8.86788 28.2662,-13.30177 44.89334,-13.30177 z m 144.98192,0 c 13.52341,0 25.27328,2.21691 35.24957,6.65099 10.19801,4.43387 19.73091,11.08449 28.59872,19.95246 l -15.62953,17.62482 c -7.53764,-6.65097 -15.07528,-11.52829 -22.61293,-14.63201 -7.31594,-3.3253 -15.29699,-4.98804 -23.94311,-4.98804 -11.0848,0 -20.06344,3.1038 -26.93599,9.31111 -6.65088,5.98588 -9.97631,13.96693 -9.97631,23.94312 0,6.65096 1.33006,12.4151 3.99052,17.29232 2.66034,4.65565 7.20509,8.9787 13.63426,12.96935 6.42918,3.76864 15.51869,7.64828 27.26855,11.63893 13.52342,4.87722 24.60821,10.08703 33.25431,15.62942 8.64613,5.54238 15.297,12.63686 19.95262,21.2827 4.65558,8.64623 6.98341,19.50933 6.98341,32.58925 0,13.0801 -2.9929,24.83005 -8.97868,35.24964 -5.98576,10.19795 -14.63191,18.29 -25.93838,24.27563 -11.08477,5.76413 -24.16479,8.64611 -39.24009,8.64611 -27.71195,0 -51.32251,-9.97619 -70.83171,-29.92894 l 16.29461,-17.62471 c 8.20275,7.31613 16.51633,12.96917 24.94075,16.95982 8.64614,3.76873 18.17904,5.65314 28.59872,5.65314 13.08004,0 23.49973,-3.65799 31.25905,-10.97376 7.98104,-7.53781 11.97156,-17.84659 11.97156,-30.9266 0,-11.30643 -3.21457,-20.28513 -9.64376,-26.9361 -6.20748,-6.6508 -17.73561,-12.85836 -34.58448,-18.6224 -21.50447,-7.53762 -37.02316,-16.29457 -46.55605,-26.27086 -9.3112,-9.97638 -13.96682,-22.94546 -13.96682,-38.90753 0,-11.30644 2.7712,-21.50447 8.31358,-30.5941 5.7641,-9.31102 13.74513,-16.51615 23.9431,-21.61521 10.19799,-5.09897 21.72616,-7.64855 34.58451,-7.64855 z m 186.58445,0 c 11.97157,0 22.39123,1.8856 31.25909,5.65314 8.86777,3.54724 17.62473,9.20045 26.27098,16.95983 l -15.96221,18.62249 c -6.42911,-5.54239 -12.85823,-9.64379 -19.28744,-12.3041 -6.2075,-2.6604 -13.08003,-3.99066 -20.61762,-3.99066 -17.29239,0 -31.03745,7.42688 -41.23542,22.28038 -10.19799,14.63193 -15.29701,38.35348 -15.29701,71.16438 0,31.92416 5.09902,55.5345 15.29701,70.8317 10.19797,15.07515 23.94303,22.61277 41.23542,22.61277 8.64597,0 16.07292,-1.55173 22.28033,-4.65555 6.20749,-3.10372 12.96922,-7.64845 20.28519,-13.63407 l 15.62955,18.28962 c -16.62721,17.07077 -36.57988,25.60587 -59.85787,25.60587 -17.07059,0 -32.25672,-4.43372 -45.55841,-13.30168 -13.08002,-8.86787 -23.3889,-22.16963 -30.92652,-39.9052 -7.31595,-17.95732 -10.97392,-39.90519 -10.97392,-65.84346 0,-25.71688 3.76883,-47.44301 11.30646,-65.17849 7.75934,-17.73564 18.17902,-31.03742 31.25905,-39.9052 13.30179,-8.86788 28.26618,-13.30177 44.89334,-13.30177 z m 205.44937,233.11283 -15.2971,-58.19501 -76.8173,0 -15.297,58.19501 -30.9265,0 66.1759,-228.78977 37.9101,0 66.1761,228.78977 z m -85.7961,-82.47073 64.1808,0 -31.9242,-121.71074 z m 293.7603,82.47073 -39.9052,0 -81.4731,-196.5331 c 2.6604,29.26375 3.9905,57.7516 3.9905,85.46371 l 0,111.06939 -27.9336,0 0,-228.78977 39.5725,0 81.8057,196.86551 c -0.8867,-7.75928 -1.8843,-18.40065 -2.9929,-31.92415 -0.8876,-13.52334 -1.33,-26.93584 -1.33,-40.23752 l 0,-124.70384 28.2662,0 z m 201.9921,0 -39.9051,0 -81.4732,-196.5331 c 2.6604,29.26375 3.9908,57.7516 3.9908,85.46371 l 0,111.06939 -27.9337,0 0,-228.78977 39.5727,0 81.8054,196.86551 c -0.8859,-7.75928 -1.8833,-18.40065 -2.9927,-31.92415 -0.8859,-13.52334 -1.3306,-26.93584 -1.3306,-40.23752 l 0,-124.70384 28.2661,0 z m 170.4078,-228.78977 -3.658,23.94312 -79.1454,0 0,75.48725 68.8365,0 0,23.94304 -68.8365,0 0,81.14065 83.8009,0 0,24.27571 -114.7272,0 0,-228.78977 z m 154.5494,228.78977 -49.2163,-97.43522 -1.9962,0 -30.2614,0 0,97.43522 -30.9266,0 0,-228.78977 53.5397,0 c 54.5368,0 81.8055,21.50448 81.8055,64.51341 0,15.07526 -3.658,27.82276 -10.9738,38.24245 -7.3161,10.41971 -18.0683,18.06834 -32.2568,22.94547 l 54.5372,103.08844 z m -56.5323,-121.04567 c 15.9621,0 27.8228,-3.43641 35.582,-10.30896 7.7594,-7.0942 11.639,-18.06815 11.639,-32.92173 0,-13.96676 -3.9904,-24.2757 -11.9715,-30.9265 -7.7593,-6.65098 -20.5067,-9.97627 -38.2422,-9.97627 l -21.948,0 0,84.13346 z"
       inkscape:connector-curvature="0" />
    <path
       style="fill:#ffffff"
       id="path12"
       d="m 360.56153,358.41026 c -3.22368,-55.08693 -48.64532,-99.12157 -103.38401,-99.12157 -33.26105,0 -65.41077,16.31855 -85.36797,42.89148 -0.44977,-0.24418 -0.93431,-0.41483 -1.42179,-0.62359 -1.21287,-0.58912 -2.45766,-1.14326 -3.70534,-1.66266 -0.6935,-0.27866 -1.4218,-0.51921 -2.11528,-0.76338 -1.24478,-0.41483 -2.52729,-0.82965 -3.77497,-1.17803 -0.69348,-0.17428 -1.42179,-0.38033 -2.11236,-0.55461 -1.38697,-0.31044 -2.77393,-0.55461 -4.22764,-0.76338 -0.62387,-0.10165 -1.21287,-0.20606 -1.87153,-0.27595 -2.04273,-0.24326 -4.08835,-0.34493 -6.1659,-0.34493 -30.38556,0 -55.086876,24.70133 -55.086876,55.08691 0,0.76067 0.03449,1.52333 0.101576,2.32129 l 0,0.0364 c -25.429625,13.8581 -42.926273,42.92633 -42.926273,72.02642 0,43.37893 35.271851,78.61305 78.613043,78.61305 l 150.05046,0 c 0.62387,0 1.28251,-0.0364 1.90635,-0.10436 l 0.38015,-0.0364 0.83273,0.0364 c 0.62387,0.0363 1.24769,0.10436 1.90635,0.10436 l 60.00509,0 c 40.60499,0 73.6223,-33.05209 73.6223,-73.62227 0,-33.57147 -23.41881,-63.71334 -55.25808,-72.06411 z M 72.963636,387.06358 c 6.92902,-10.42842 16.353416,-19.12445 27.196694,-24.32128 l 3.4645,-1.66545 0,-3.84471 c 0,-0.76339 0.0345,-1.55809 0.10449,-2.35604 l 0.0345,-0.96917 -0.0699,-1.2825 c -0.0345,-0.48472 -0.0699,-1.00393 -0.0699,-1.48847 0,-23.63069 19.22891,-42.85961 42.85954,-42.85961 1.90345,0 3.74015,0.17428 5.61168,0.41755 0.48455,0.0726 0.93433,0.13609 1.41889,0.24053 1.6307,0.27867 3.22368,0.6236 4.81666,1.07356 0.20887,0.0726 0.41492,0.10434 0.65864,0.17428 1.73226,0.55461 3.42969,1.21288 5.12714,1.976 0.4149,0.20604 0.86758,0.41481 1.28248,0.62358 1.45372,0.72528 2.91032,1.52333 4.29729,2.42286 11.81242,7.6225 19.64383,20.8915 19.64383,35.96238 0,3.36297 2.73621,6.09918 6.09627,6.09918 3.36004,0 6.09916,-2.73621 6.09916,-6.09918 0,-16.83792 -7.62252,-31.94077 -19.57711,-42.05864 17.5663,-22.96906 46.46043,-37.52065 75.21818,-37.52065 47.42955,0 86.78685,37.55541 90.91004,85.01985 -6.23555,-0.41484 -15.62512,-0.659 -25.0147,0.76337 -3.36005,0.48472 -5.64651,3.63856 -5.12713,6.96386 0.44977,3.04954 3.04958,5.19673 6.06435,5.19673 0.31044,0 0.62387,-0.0363 0.93432,-0.0726 13.6172,-2.04561 27.82054,-0.1398 28.68811,-0.0364 12.47107,2.35614 23.59291,8.73089 32.14975,17.60112 -17.63305,0.0364 -303.637959,0.0364 -312.81862,0.0364 z"
       inkscape:connector-curvature="0" />
    <path
       style="fill:#ffffff"
       id="path14"
       d="m 443.15558,608.89955 -42.19797,0 0,21.10045 63.29839,0 0,-63.29843 -21.10042,0 z"
       inkscape:connector-curvature="0" />
    <path
       style="fill:#ffffff"
       id="path16"
       d="m 464.256,165.744 -63.29839,0 0,21.10043 42.19797,0 0,42.19801 21.10042,0 z"
       inkscape:connector-curvature="0" />
    <path
       style="fill:#ffffff"
       id="path18"
       d="m -1.25e-6,630 63.29840525,0 0,-21.10045 -42.19797,0 0,-42.19798 -21.10043525,0 z"
       inkscape:connector-curvature="0" />
    <path
       style="fill:#ffffff"
       id="path20"
       d="m -1.25e-6,229.04244 21.10043525,0 0,-42.19801 42.19797,0 0,-21.10043 -63.29840525,0 z"
       inkscape:connector-curvature="0" />
  </g>
</svg>
