<?xml version="1.0" encoding="UTF-8" standalone="no"?>
<svg
   xmlns:dc="http://purl.org/dc/elements/1.1/"
   xmlns:cc="http://creativecommons.org/ns#"
   xmlns:rdf="http://www.w3.org/1999/02/22-rdf-syntax-ns#"
   xmlns:svg="http://www.w3.org/2000/svg"
   xmlns="http://www.w3.org/2000/svg"
   xmlns:sodipodi="http://sodipodi.sourceforge.net/DTD/sodipodi-0.dtd"
   xmlns:inkscape="http://www.inkscape.org/namespaces/inkscape"
   height="50"
   viewBox="0 0 185 50"
   width="185"
   id="svg2"
   version="1.1"
   inkscape:version="0.91 r13725"
   sodipodi:docname="header.svg"
   inkscape:export-filename="/home/janoszen/opsbears/cscanner/docs/img/opengraph.png"
   inkscape:export-xdpi="90"
   inkscape:export-ydpi="90"
   style="fill:none">
  <metadata
     id="metadata26">
    <rdf:RDF>
      <cc:Work
         rdf:about="">
        <dc:format>image/svg+xml</dc:format>
        <dc:type
           rdf:resource="http://purl.org/dc/dcmitype/StillImage" />
        <dc:title></dc:title>
      </cc:Work>
    </rdf:RDF>
  </metadata>
  <defs
     id="defs24" />
  <sodipodi:namedview
     pagecolor="#ffffff"
     bordercolor="#666666"
     borderopacity="1"
     objecttolerance="10"
     gridtolerance="10"
     guidetolerance="10"
     inkscape:pageopacity="0"
     inkscape:pageshadow="2"
     inkscape:window-width="1920"
     inkscape:window-height="1005"
     id="namedview22"
     showgrid="false"
     inkscape:zoom="2.3333334"
     inkscape:cx="170.57292"
     inkscape:cy="11.687564"
     inkscape:window-x="0"
     inkscape:window-y="24"
     inkscape:window-maximized="1"
     inkscape:current-layer="layer3" />
  <g
     inkscape:groupmode="layer"
     id="layer3"
     inkscape:label="Background"
     style="display:none">
    <rect
       style="opacity:1;fill:#2980b9;fill-opacity:1;stroke:#999999;stroke-width:0;stroke-linecap:butt;stroke-linejoin:round;stroke-miterlimit:4;stroke-dasharray:none;stroke-dashoffset:0;stroke-opacity:1"
       id="rect4795"
       width="184.99998"
       height="50"
       x="4.4402377e-06"
       y="-6.0000002e-06" />
  </g>
  <g
     inkscape:groupmode="layer"
     id="layer2"
     inkscape:label="Logo">
    <path
       style="fill:#ffffff"
       id="path8"
       d="m 58.435115,14.166751 c 1.092425,0 2.043242,0.171958 2.85245,0.515868 0.809201,0.323686 1.608294,0.839553 2.397272,1.547609 l -1.456571,1.699333 c -0.58667,-0.505754 -1.173347,-0.880012 -1.760018,-1.122774 -0.566446,-0.242761 -1.193586,-0.364141 -1.881409,-0.364141 -1.577949,0 -2.832227,0.677709 -3.762805,2.03313 -0.930586,1.335189 -1.395886,3.499816 -1.395886,6.49388 0,2.913143 0.4653,5.067653 1.395886,6.463534 0.930578,1.375649 2.184856,2.063475 3.762805,2.063475 0.788977,0 1.466686,-0.141612 2.033126,-0.424834 0.566446,-0.283221 1.18347,-0.69794 1.851063,-1.244154 l 1.426225,1.668988 c -1.517256,1.557722 -3.337974,2.336583 -5.462138,2.336583 -1.557725,0 -2.943488,-0.404601 -4.157304,-1.213808 -1.193571,-0.809208 -2.134272,-2.023016 -2.822104,-3.64143 -0.667593,-1.638642 -1.001393,-3.641426 -1.001393,-6.008354 0,-2.346701 0.343916,-4.329256 1.03174,-5.947666 0.708055,-1.618414 1.658871,-2.832222 2.852449,-3.64143 1.213809,-0.809207 2.579349,-1.213809 4.096612,-1.213809 z m 13.229885,0 c 1.23404,0 2.30624,0.202301 3.216596,0.606906 0.930585,0.404602 1.800479,1.011509 2.609688,1.820712 l -1.426225,1.608299 C 75.377235,17.595762 74.689411,17.150701 74.00158,16.86748 73.333986,16.564026 72.605701,16.4123 71.816723,16.4123 c -1.011509,0 -1.830825,0.283221 -2.457956,0.849667 -0.606909,0.546213 -0.910363,1.274497 -0.910363,2.184857 0,0.606902 0.121384,1.132888 0.364146,1.577949 0.242762,0.424834 0.657478,0.819321 1.244155,1.183466 0.586671,0.343914 1.41611,0.697941 2.488304,1.062083 1.234047,0.445065 2.245548,0.920473 3.034526,1.426227 0.788978,0.505753 1.395879,1.153116 1.820717,1.942096 0.424832,0.788974 0.637247,1.78025 0.637247,2.97383 0,1.19358 -0.273108,2.265776 -0.819323,3.216595 -0.546209,0.930589 -1.335187,1.66899 -2.366927,2.215204 -1.011509,0.525982 -2.205086,0.788975 -3.580735,0.788975 -2.528771,0 -4.683281,-0.910356 -6.463538,-2.731071 l 1.486917,-1.608298 c 0.748517,0.667598 1.507149,1.183465 2.275895,1.547605 0.788979,0.343914 1.658872,0.515873 2.609688,0.515873 1.193579,0 2.144395,-0.333799 2.85245,-1.001393 0.728285,-0.687827 1.092431,-1.628528 1.092431,-2.82211 0,-1.031735 -0.293338,-1.851056 -0.880009,-2.457961 -0.566446,-0.606908 -1.618417,-1.17335 -3.155903,-1.699336 -1.962332,-0.687823 -3.378442,-1.486915 -4.248336,-2.397271 -0.849662,-0.91036 -1.274501,-2.093821 -1.274501,-3.550395 0,-1.031736 0.252877,-1.962324 0.758631,-2.791759 0.525986,-0.849665 1.254271,-1.507146 2.184857,-1.97244 0.930586,-0.465294 1.982556,-0.697941 3.155904,-0.697941 z m 17.026206,0 c 1.092436,0 2.043249,0.171958 2.852449,0.515868 0.809209,0.323686 1.608304,0.839553 2.397277,1.547609 l -1.45657,1.699333 c -0.586676,-0.505754 -1.173353,-0.880012 -1.760021,-1.122774 -0.566449,-0.242761 -1.193582,-0.364141 -1.881411,-0.364141 -1.577949,0 -2.832219,0.677709 -3.762804,2.03313 -0.930587,1.335189 -1.395889,3.499816 -1.395889,6.49388 0,2.913143 0.465302,5.067653 1.395889,6.463534 0.930585,1.375649 2.184855,2.063475 3.762804,2.063475 0.788977,0 1.466697,-0.141612 2.033137,-0.424834 0.56644,-0.283221 1.183459,-0.69794 1.851055,-1.244154 l 1.426219,1.668988 c -1.517253,1.557722 -3.337966,2.336583 -5.462135,2.336583 -1.557724,0 -2.943488,-0.404601 -4.157297,-1.213808 -1.19358,-0.809208 -2.134282,-2.023016 -2.822105,-3.64143 -0.667601,-1.638642 -1.001394,-3.641426 -1.001394,-6.008354 0,-2.346701 0.343916,-4.329256 1.031733,-5.947666 0.708062,-1.618414 1.658878,-2.832222 2.852459,-3.64143 1.213809,-0.809207 2.579341,-1.213809 4.096604,-1.213809 z m 18.747664,21.27201 -1.39588,-5.310418 -7.009752,0 -1.39588,5.310418 -2.822105,0 6.038707,-20.877523 3.45935,0 6.0387,20.877523 z m -7.829062,-7.52562 5.856622,0 -2.91314,-11.106354 z m 26.806212,7.52562 -3.64143,0 -7.43458,-17.934033 c 0.24276,2.670382 0.36414,5.269954 0.36414,7.798723 l 0,10.13531 -2.549,0 0,-20.877523 3.61109,0 7.46492,17.96438 c -0.081,-0.708055 -0.17195,-1.679103 -0.2731,-2.913143 -0.081,-1.23404 -0.12139,-2.457963 -0.12139,-3.671772 l 0,-11.379465 2.57935,0 z m 18.4322,0 -3.64143,0 -7.43458,-17.934033 c 0.24276,2.670382 0.36413,5.269954 0.36413,7.798723 l 0,10.13531 -2.54899,0 0,-20.877523 3.61109,0 7.46492,17.96438 c -0.081,-0.708055 -0.17196,-1.679103 -0.27311,-2.913143 -0.081,-1.23404 -0.12138,-2.457963 -0.12138,-3.671772 l 0,-11.379465 2.57935,0 z m 15.55003,-20.877523 -0.3338,2.184857 -7.22216,0 0,6.888368 6.28146,0 0,2.18486 -6.28146,0 0,7.404235 7.647,0 0,2.215203 -10.46912,0 0,-20.877523 z m 14.10295,20.877523 -4.4911,-8.891156 -0.18207,0 -2.76141,0 0,8.891156 -2.82211,0 0,-20.877523 4.88558,0 c 4.97662,0 7.46493,1.962328 7.46493,5.886979 0,1.375649 -0.3338,2.538884 -1.00139,3.489699 -0.6676,0.950819 -1.64876,1.64876 -2.94349,2.093822 l 4.97662,9.407023 z m -5.15869,-11.045666 c 1.45657,0 2.53888,-0.313567 3.24694,-0.9407 0.70806,-0.647367 1.06208,-1.648761 1.06208,-3.004178 0,-1.2745 -0.36414,-2.215202 -1.09243,-2.822109 -0.70805,-0.606906 -1.87128,-0.910356 -3.4897,-0.910356 l -2.00278,0 0,7.677343 z"
       inkscape:connector-curvature="0" />
    <path
       style="fill:#ffffff"
       id="path12"
       d="m 36.06575,22.994 c -0.27775,-4.746251 -4.19125,-8.54025 -8.9075,-8.54025 -2.86575,0 -5.63575,1.406 -7.35525,3.6955 -0.03875,-0.021 -0.0805,-0.03575 -0.1225,-0.05375 -0.1045,-0.05075 -0.21175,-0.0985 -0.31925,-0.143249 -0.05975,-0.024 -0.122501,-0.04475 -0.182251,-0.06575 -0.10725,-0.03575 -0.217749,-0.0715 -0.32525,-0.101501 -0.05975,-0.015 -0.1225,-0.03275 -0.182,-0.04775 C 18.55225,17.7105 18.43275,17.6895 18.3075,17.6715 18.25375,17.6627 18.203,17.65375 18.146249,17.64775 17.97025,17.62675 17.793999,17.618 17.615,17.618 c -2.618,0 -4.74625,2.128251 -4.74625,4.746251 0,0.0655 0.003,0.131249 0.0088,0.2 l 0,0.003 c -2.191,1.194 -3.6985004,3.698499 -3.6985004,6.20575 0,3.7375 3.0389994,6.773249 6.7732494,6.773249 l 12.92825,0 c 0.05375,0 0.1105,-0.003 0.16425,-0.009 l 0.03275,-0.003 0.07175,0.003 c 0.05375,0.003 0.1075,0.009 0.164251,0.009 l 5.169999,0 c 3.498501,0 6.34325,-2.84775 6.34325,-6.34325 0,-2.892501 -2.01775,-5.4895 -4.760999,-6.209 z M 11.2865,25.462749 c 0.597,-0.898499 1.409,-1.647749 2.34325,-2.095499 l 0.2985,-0.1435 0,-0.331251 c 0,-0.06575 0.003,-0.13425 0.009,-0.202999 l 0.003,-0.0835 -0.006,-0.110501 c -0.003,-0.04175 -0.006,-0.0865 -0.006,-0.128249 0,-2.036 1.65675,-3.69275 3.69275,-3.69275 0.164001,0 0.32225,0.015 0.483501,0.036 0.04175,0.006 0.0805,0.01176 0.122249,0.02075 0.140501,0.024 0.277751,0.05375 0.415,0.0925 0.018,0.006 0.03575,0.009 0.05675,0.015 0.149251,0.04775 0.2955,0.104499 0.441751,0.17025 0.03575,0.01775 0.07475,0.03575 0.110499,0.05375 0.12525,0.0625 0.25075,0.131251 0.37025,0.208751 1.01775,0.656748 1.6925,1.8 1.6925,3.098499 0,0.28975 0.23575,0.5255 0.52525,0.5255 0.2895,0 0.5255,-0.23575 0.5255,-0.5255 0,-1.45075 -0.656749,-2.752 -1.686749,-3.623749 1.513499,-1.979001 4.002999,-3.23275 6.480749,-3.23275 4.086501,0 7.4775,3.235749 7.83275,7.32525 -0.53725,-0.03575 -1.346249,-0.05675 -2.15525,0.06575 -0.2895,0.04175 -0.4865,0.3135 -0.44175,0.6 0.03875,0.26275 0.26275,0.44775 0.5225,0.44775 0.02675,0 0.05375,-0.003 0.0805,-0.006 1.17325,-0.176251 2.396999,-0.012 2.471749,-0.003 1.0745,0.203001 2.03275,0.75225 2.77,1.516501 -1.519249,0.003 -26.16125,0.003 -26.95225,0.003 z"
       inkscape:connector-curvature="0" />
    <path
       style="fill:#ffffff"
       id="path14"
       d="m 43.182,43.182001 -3.635751,0 0,1.817999 L 45,45 l 0,-5.453749 -1.818,0 z"
       inkscape:connector-curvature="0" />
    <path
       style="fill:#ffffff"
       id="path16"
       d="m 45,5.0000008 -5.453751,0 0,1.8179997 3.635751,0 0,3.6357495 1.818,0 z"
       inkscape:connector-curvature="0" />
    <path
       style="fill:#ffffff"
       id="path18"
       d="m 5,45 5.45375,0 0,-1.817999 -3.6357501,0 0,-3.63575 -1.8179999,0 z"
       inkscape:connector-curvature="0" />
    <path
       style="fill:#ffffff"
       id="path20"
       d="m 5,10.45375 1.8179999,0 0,-3.6357495 3.6357501,0 0,-1.8179997 -5.45375,0 z"
       inkscape:connector-curvature="0" />
  </g>
</svg>
